# xmcd
#
# Track frame offsets:
#	150
#	15210
#	34682
#
# Disc length: 852 seconds
#
# Revision: 2
# Processed by: cddbd v1.5.1PL2 Copyright (c) Steve Scherf et al.
# Submitted via: audiograbber 1.83.01
#
DISCID=12035203
DTITLE=Marine Research - Parallel Horizontal
DYEAR=1999
DGENRE=Indie
TTITLE0=Parallel Horizontal
TTITLE1=Angel In The Snow
TTITLE2=I Confess
EXTD=
EXTT0=
EXTT1=
EXTT2=
PLAYORDER=
